# xmcd
#
# Track frame offsets:
# 150
# 18622
# 24888
# 29689
#
# Disc length: 469 seconds
#
#
# Revision: 0
# Processed by: cddbd v1.5.2PL0 Copyright (c) Steve Scherf et al.
# Submitted via: FreeRIP 2.70 
#
DISCID=2801d304
DTITLE=Robert Bradley's Blackwater Surprise - Songs from the Forthcoming Album Time to Discover
DYEAR=2000
DGENRE=Blues
TTITLE0=Baby
TTITLE1=You and Me
TTITLE2=Take Love And Receive It
TTITLE3=Ride
EXTD=
EXTT0=
EXTT1=
EXTT2=
EXTT3=
PLAYORDER=
